<svg width="22" height="22" viewBox="0 0 22 22" fill="none" xmlns="http://www.w3.org/2000/svg">
<rect x="1" y="1" width="20" height="20" rx="4" fill="#6674FF"/>
<rect x="1" y="1" width="20" height="20" rx="4" stroke="#6674FF"/>
<path d="M16.5917 7.00822C16.5142 6.93011 16.4221 6.86811 16.3205 6.82581C16.219 6.7835 16.11 6.76172 16 6.76172C15.89 6.76172 15.7811 6.7835 15.6796 6.82581C15.578 6.86811 15.4858 6.93011 15.4084 7.00822L9.20004 13.2249L6.59171 10.6082C6.51127 10.5305 6.41632 10.4694 6.31227 10.4284C6.20823 10.3874 6.09713 10.3673 5.98531 10.3692C5.87349 10.3712 5.76315 10.3951 5.66058 10.4397C5.55802 10.4843 5.46524 10.5486 5.38754 10.6291C5.30984 10.7095 5.24875 10.8044 5.20774 10.9085C5.16674 11.0125 5.14663 11.1236 5.14856 11.2354C5.1505 11.3473 5.17444 11.4576 5.21902 11.5602C5.2636 11.6627 5.32794 11.7555 5.40837 11.8332L8.60837 15.0332C8.68584 15.1113 8.77801 15.1733 8.87956 15.2156C8.98111 15.2579 9.09003 15.2797 9.20004 15.2797C9.31005 15.2797 9.41897 15.2579 9.52052 15.2156C9.62207 15.1733 9.71424 15.1113 9.79171 15.0332L16.5917 8.23322C16.6763 8.15518 16.7438 8.06047 16.79 7.95506C16.8361 7.84964 16.86 7.7358 16.86 7.62072C16.86 7.50563 16.8361 7.3918 16.79 7.28638C16.7438 7.18096 16.6763 7.08625 16.5917 7.00822V7.00822Z" fill="black"/>
</svg>
