<svg width="17" height="16" viewBox="0 0 17 16" fill="none" xmlns="http://www.w3.org/2000/svg">
<path d="M10.4157 8.63379H5.74902C5.47569 8.63379 5.24902 8.40712 5.24902 8.13379C5.24902 7.86046 5.47569 7.63379 5.74902 7.63379H10.4157C10.689 7.63379 10.9157 7.86046 10.9157 8.13379C10.9157 8.40712 10.689 8.63379 10.4157 8.63379Z" fill="white"/>
<path d="M8.66902 11.2998H5.74902C5.47569 11.2998 5.24902 11.0731 5.24902 10.7998C5.24902 10.5265 5.47569 10.2998 5.74902 10.2998H8.66902C8.94236 10.2998 9.16902 10.5265 9.16902 10.7998C9.16902 11.0731 8.94236 11.2998 8.66902 11.2998Z" fill="white"/>
<path d="M9.74902 4.49967H7.08236C6.44236 4.49967 5.24902 4.49967 5.24902 2.66634C5.24902 0.833008 6.44236 0.833008 7.08236 0.833008H9.74902C10.389 0.833008 11.5824 0.833008 11.5824 2.66634C11.5824 3.30634 11.5824 4.49967 9.74902 4.49967ZM7.08236 1.83301C6.42236 1.83301 6.24902 1.83301 6.24902 2.66634C6.24902 3.49967 6.42236 3.49967 7.08236 3.49967H9.74902C10.5824 3.49967 10.5824 3.32634 10.5824 2.66634C10.5824 1.83301 10.409 1.83301 9.74902 1.83301H7.08236Z" fill="white"/>
<path d="M10.416 15.1669H6.41602C2.66935 15.1669 1.91602 13.4469 1.91602 10.6669V6.66695C1.91602 3.62695 3.01602 2.32695 5.72268 2.18695C5.98935 2.17361 6.23602 2.38028 6.24935 2.66028C6.26268 2.94028 6.04935 3.16695 5.77602 3.18028C3.88268 3.28695 2.91602 3.85361 2.91602 6.66695V10.6669C2.91602 13.1336 3.40268 14.1669 6.41602 14.1669H10.416C13.4293 14.1669 13.916 13.1336 13.916 10.6669V6.66695C13.916 3.85361 12.9493 3.28695 11.056 3.18028C10.7827 3.16695 10.5693 2.92695 10.5827 2.65361C10.596 2.38028 10.836 2.16695 11.1094 2.18028C13.816 2.32695 14.916 3.62695 14.916 6.66028V10.6603C14.916 13.4469 14.1627 15.1669 10.416 15.1669Z" fill="white"/>
</svg>
