<svg width="17" height="16" viewBox="0 0 17 16" fill="none" xmlns="http://www.w3.org/2000/svg">
<path d="M11.4288 3.7666L9.36218 2.1666C9.09551 1.89993 8.49551 1.7666 8.09551 1.7666H5.56218C4.76218 1.7666 3.89551 2.3666 3.69551 3.1666L2.09551 8.03327C1.76218 8.9666 2.36218 9.7666 3.36218 9.7666H6.02885C6.42885 9.7666 6.76218 10.0999 6.69551 10.5666L6.36218 12.6999C6.22885 13.2999 6.62885 13.9666 7.22885 14.1666C7.76218 14.3666 8.42885 14.0999 8.69551 13.6999L11.4288 9.63327" stroke="white" stroke-miterlimit="10"/>
<path d="M14.8294 3.76667V10.3C14.8294 11.2333 14.4294 11.5667 13.4961 11.5667H12.8294C11.8961 11.5667 11.4961 11.2333 11.4961 10.3V3.76667C11.4961 2.83333 11.8961 2.5 12.8294 2.5H13.4961C14.4294 2.5 14.8294 2.83333 14.8294 3.76667Z" stroke="white" stroke-linecap="round" stroke-linejoin="round"/>
</svg>
