<svg width="17" height="16" viewBox="0 0 17 16" fill="none" xmlns="http://www.w3.org/2000/svg">
<path d="M5.40234 12.2336L7.46901 13.8336C7.73568 14.1003 8.33568 14.2336 8.73568 14.2336H11.269C12.069 14.2336 12.9357 13.6336 13.1357 12.8336L14.7357 7.96697C15.069 7.03364 14.469 6.23364 13.469 6.23364H10.8023C10.4023 6.23364 10.069 5.9003 10.1357 5.43364L10.469 3.3003C10.6023 2.7003 10.2023 2.03364 9.60234 1.83364C9.06901 1.63364 8.40234 1.9003 8.13568 2.3003L5.40234 6.36697" stroke="white" stroke-miterlimit="10"/>
<path d="M2.00293 12.2336V5.70026C2.00293 4.76693 2.40293 4.43359 3.33626 4.43359H4.00293C4.93626 4.43359 5.33626 4.76693 5.33626 5.70026V12.2336C5.33626 13.1669 4.93626 13.5003 4.00293 13.5003H3.33626C2.40293 13.5003 2.00293 13.1669 2.00293 12.2336Z" stroke="white" stroke-linecap="round" stroke-linejoin="round"/>
</svg>
