<svg width="49" height="48" viewBox="0 0 49 48" fill="none" xmlns="http://www.w3.org/2000/svg">
<path fill-rule="evenodd" clip-rule="evenodd" d="M35.0034 25.0886C32.3043 26.1708 29.3909 26.8383 26.3436 27.0112C25.8181 27.041 25.2886 27.0562 24.7555 27.0562C24.2225 27.0562 23.693 27.041 23.1674 27.0112C20.1195 26.8382 17.2054 26.1705 14.5058 25.0878C8.84044 22.8158 4.1197 18.7165 1.08887 13.5281C5.81294 5.44098 14.6426 0 24.7555 0C34.8685 0 43.6981 5.44098 48.4222 13.5281C45.391 18.7171 40.6696 22.8167 35.0034 25.0886Z" fill="white"/>
<path d="M14.5054 27.1938C13.8528 26.932 13.2126 26.646 12.5862 26.3369C10.5503 27.7572 8.82917 29.526 7.5332 31.5441C9.73601 34.9744 13.1671 37.6845 17.2846 39.1866C19.2467 39.9024 21.3647 40.3439 23.5799 40.4582H25.8884C28.1031 40.3439 31.9958 42.5167 26.3433 47.9998C30.4615 46.4978 39.7321 34.9747 41.9351 31.5441C40.6428 29.5318 38.9279 27.7672 36.8995 26.3491C36.2803 26.6538 35.6478 26.936 35.003 27.1945C32.304 28.2767 29.3905 28.9442 26.3433 29.1172C25.8177 29.147 25.2882 29.1621 24.7552 29.1621C24.2221 29.1621 23.6926 29.147 23.1671 29.1172C20.1191 28.9442 17.205 28.2764 14.5054 27.1938Z" fill="white"/>
<rect x="13.3438" y="10.0674" width="22.8741" height="8.08988" rx="4.04494" fill="#162550"/>
<ellipse cx="31.0885" cy="14.0671" rx="1.49771" ry="1.48315" fill="#04FED1"/>
<ellipse cx="24.734" cy="34.0222" rx="1.49771" ry="1.48315" fill="#162550"/>
<ellipse cx="18.7438" cy="14.0671" rx="1.49771" ry="1.48315" fill="#04FED1"/>
<ellipse cx="18.7438" cy="34.0222" rx="1.49771" ry="1.48315" fill="#162550"/>
<ellipse cx="30.7262" cy="34.0222" rx="1.49771" ry="1.48315" fill="#162550"/>
</svg>
