<svg width="17" height="16" viewBox="0 0 17 16" fill="none" xmlns="http://www.w3.org/2000/svg">
<path d="M8.49984 0.666992C7.04944 0.666992 5.63162 1.09708 4.42566 1.90288C3.2197 2.70868 2.27977 3.85399 1.72472 5.19398C1.16968 6.53397 1.02446 8.00846 1.30742 9.43099C1.59037 10.8535 2.28881 12.1602 3.31439 13.1858C4.33998 14.2114 5.64665 14.9098 7.06918 15.1928C8.49171 15.4757 9.9662 15.3305 11.3062 14.7754C12.6462 14.2204 13.7915 13.2805 14.5973 12.0745C15.4031 10.8685 15.8332 9.45072 15.8332 8.00033C15.8309 6.05611 15.0575 4.19218 13.6828 2.81741C12.308 1.44264 10.4441 0.669286 8.49984 0.666992ZM10.9712 10.4717C10.8462 10.5966 10.6766 10.6669 10.4998 10.6669C10.3231 10.6669 10.1535 10.5966 10.0285 10.4717L8.02851 8.47166C7.90347 8.34666 7.83321 8.17712 7.83317 8.00033V4.00033C7.83317 3.82351 7.90341 3.65395 8.02844 3.52892C8.15346 3.4039 8.32303 3.33366 8.49984 3.33366C8.67665 3.33366 8.84622 3.4039 8.97124 3.52892C9.09627 3.65395 9.16651 3.82351 9.16651 4.00033V7.72433L10.9712 9.52899C11.0962 9.65401 11.1664 9.82355 11.1664 10.0003C11.1664 10.1771 11.0962 10.3466 10.9712 10.4717Z" fill="#4D4D4D"/>
</svg>
