<svg width="16" height="16" viewBox="0 0 16 16" fill="none" xmlns="http://www.w3.org/2000/svg">
<mask id="path-1-inside-1_3249_7963" fill="white">
<path d="M14.5938 2.375H1.40625C0.629281 2.375 0 3.00819 0 3.78125V12.2188C0 12.9964 0.633906 13.625 1.40625 13.625H14.5938C15.3642 13.625 16 12.9991 16 12.2188V3.78125C16 3.00956 15.3732 2.375 14.5938 2.375ZM14.3968 3.3125C14.1095 3.59828 9.16509 8.51666 8.99438 8.68647C8.72875 8.95209 8.37562 9.09834 8 9.09834C7.62437 9.09834 7.27125 8.95206 7.00475 8.68559C6.88994 8.57137 2.00009 3.70731 1.60319 3.3125H14.3968ZM0.9375 12.0279V3.97266L4.98869 8.0025L0.9375 12.0279ZM1.60378 12.6875L5.65338 8.66366L6.34272 9.34937C6.78541 9.79206 7.37397 10.0358 8 10.0358C8.62603 10.0358 9.21459 9.79206 9.65641 9.35025L10.3466 8.66366L14.3962 12.6875H1.60378ZM15.0625 12.0279L11.0113 8.0025L15.0625 3.97266V12.0279Z"/>
</mask>
<path d="M14.5938 2.375H1.40625C0.629281 2.375 0 3.00819 0 3.78125V12.2188C0 12.9964 0.633906 13.625 1.40625 13.625H14.5938C15.3642 13.625 16 12.9991 16 12.2188V3.78125C16 3.00956 15.3732 2.375 14.5938 2.375ZM14.3968 3.3125C14.1095 3.59828 9.16509 8.51666 8.99438 8.68647C8.72875 8.95209 8.37562 9.09834 8 9.09834C7.62437 9.09834 7.27125 8.95206 7.00475 8.68559C6.88994 8.57137 2.00009 3.70731 1.60319 3.3125H14.3968ZM0.9375 12.0279V3.97266L4.98869 8.0025L0.9375 12.0279ZM1.60378 12.6875L5.65338 8.66366L6.34272 9.34937C6.78541 9.79206 7.37397 10.0358 8 10.0358C8.62603 10.0358 9.21459 9.79206 9.65641 9.35025L10.3466 8.66366L14.3962 12.6875H1.60378ZM15.0625 12.0279L11.0113 8.0025L15.0625 3.97266V12.0279Z" fill="#F2F2F2"/>
<path d="M14.3968 3.3125L15.102 4.02149L16.8202 2.3125H14.3968V3.3125ZM8.99438 8.68647L8.28915 7.97748L8.28727 7.97936L8.99438 8.68647ZM7.00475 8.68559L7.71182 7.97844L7.71002 7.97666L7.00475 8.68559ZM1.60319 3.3125V2.3125H-0.820084L0.897953 4.02147L1.60319 3.3125ZM0.9375 12.0279H-0.0625V14.4313L1.64235 12.7373L0.9375 12.0279ZM0.9375 3.97266L1.64274 3.26368L-0.0625 1.56743V3.97266H0.9375ZM4.98869 8.0025L5.69354 8.71186L6.40704 8.00289L5.69392 7.29353L4.98869 8.0025ZM1.60378 12.6875L0.898933 11.9781L-0.821364 13.6875H1.60378V12.6875ZM5.65338 8.66366L6.35862 7.95469L5.65377 7.25354L4.94853 7.9543L5.65338 8.66366ZM6.34272 9.34937L7.04983 8.64227L7.04796 8.64041L6.34272 9.34937ZM9.65641 9.35025L8.95116 8.64128L8.9493 8.64314L9.65641 9.35025ZM10.3466 8.66366L11.0515 7.9543L10.3462 7.25354L9.64138 7.95469L10.3466 8.66366ZM14.3962 12.6875V13.6875H16.8214L15.1011 11.9781L14.3962 12.6875ZM15.0625 12.0279L14.3577 12.7373L16.0625 14.4313V12.0279H15.0625ZM11.0113 8.0025L10.3061 7.29353L9.59296 8.00289L10.3065 8.71186L11.0113 8.0025ZM15.0625 3.97266H16.0625V1.56743L14.3573 3.26368L15.0625 3.97266ZM14.5938 1.375H1.40625V3.375H14.5938V1.375ZM1.40625 1.375C0.0751898 1.375 -1 2.45771 -1 3.78125H1C1 3.55866 1.18337 3.375 1.40625 3.375V1.375ZM-1 3.78125V12.2188H1V3.78125H-1ZM-1 12.2188C-1 13.5511 0.0840813 14.625 1.40625 14.625V12.625C1.18373 12.625 1 12.4417 1 12.2188H-1ZM1.40625 14.625H14.5938V12.625H1.40625V14.625ZM14.5938 14.625C15.9119 14.625 17 13.5559 17 12.2188H15C15 12.4422 14.8165 12.625 14.5938 12.625V14.625ZM17 12.2188V3.78125H15V12.2188H17ZM17 3.78125C17 2.46088 15.9291 1.375 14.5938 1.375V3.375C14.8173 3.375 15 3.55824 15 3.78125H17ZM13.6916 2.60351C13.4043 2.88925 8.45979 7.80775 8.28915 7.97748L9.6996 9.39546C9.8704 9.22556 14.8147 4.30731 15.102 4.02149L13.6916 2.60351ZM8.28727 7.97936C8.2092 8.05743 8.11043 8.09834 8 8.09834V10.0983C8.64082 10.0983 9.2483 9.84676 9.70148 9.39358L8.28727 7.97936ZM8 8.09834C7.89008 8.09834 7.79115 8.05777 7.71181 7.97845L6.29768 9.39274C6.75135 9.84636 7.35866 10.0983 8 10.0983V8.09834ZM7.71002 7.97666C7.59518 7.86241 2.70531 2.99832 2.30842 2.60353L0.897953 4.02147C1.29488 4.41631 6.18469 9.28034 6.29948 9.39453L7.71002 7.97666ZM1.60319 4.3125H14.3968V2.3125H1.60319V4.3125ZM1.9375 12.0279V3.97266H-0.0625V12.0279H1.9375ZM0.232263 4.68163L4.28345 8.71147L5.69392 7.29353L1.64274 3.26368L0.232263 4.68163ZM4.28384 7.29314L0.232651 11.3186L1.64235 12.7373L5.69354 8.71186L4.28384 7.29314ZM2.30863 13.3969L6.35822 9.37301L4.94853 7.9543L0.898933 11.9781L2.30863 13.3969ZM4.94813 9.37262L5.63748 10.0583L7.04796 8.64041L6.35862 7.95469L4.94813 9.37262ZM5.63561 10.0565C6.26584 10.6867 7.10876 11.0358 8 11.0358V9.03584C7.63918 9.03584 7.30497 8.89742 7.04983 8.64227L5.63561 10.0565ZM8 11.0358C8.89096 11.0358 9.73396 10.6869 10.3635 10.0574L8.9493 8.64314C8.69523 8.89722 8.3611 9.03584 8 9.03584V11.0358ZM10.3616 10.0592L11.0519 9.37262L9.64138 7.95469L8.95116 8.64128L10.3616 10.0592ZM9.64178 9.37301L13.6914 13.3969L15.1011 11.9781L11.0515 7.9543L9.64178 9.37301ZM14.3962 11.6875H1.60378V13.6875H14.3962V11.6875ZM15.7673 11.3186L11.7162 7.29314L10.3065 8.71186L14.3577 12.7373L15.7673 11.3186ZM11.7165 8.71147L15.7677 4.68163L14.3573 3.26368L10.3061 7.29353L11.7165 8.71147ZM14.0625 3.97266V12.0279H16.0625V3.97266H14.0625Z" fill="#575756" mask="url(#path-1-inside-1_3249_7963)"/>
</svg>
