<svg width="16" height="16" viewBox="0 0 16 16" fill="none" xmlns="http://www.w3.org/2000/svg">
<path d="M11.5 6V4.355C11.4987 3.4656 11.1448 2.61302 10.5159 1.98412C9.88698 1.35522 9.0344 1.00132 8.145 1H7.855C6.9656 1.00132 6.11302 1.35522 5.48412 1.98412C4.85522 2.61302 4.50132 3.4656 4.5 4.355V6C4.10218 6 3.72064 6.15804 3.43934 6.43934C3.15804 6.72064 3 7.10218 3 7.5V12.15C3.00132 12.9055 3.30201 13.6296 3.83621 14.1638C4.3704 14.698 5.09454 14.9987 5.85 15H10.15C10.9055 14.9987 11.6296 14.698 12.1638 14.1638C12.698 13.6296 12.9987 12.9055 13 12.15V7.5C13 7.10218 12.842 6.72064 12.5607 6.43934C12.2794 6.15804 11.8978 6 11.5 6ZM5.5 4.355C5.5 3.73042 5.74812 3.13141 6.18976 2.68976C6.63141 2.24812 7.23042 2 7.855 2H8.145C8.76959 2 9.36859 2.24812 9.81024 2.68976C10.2519 3.13141 10.5 3.73042 10.5 4.355V6H5.5V4.355ZM12 12.15C12 12.6407 11.8051 13.1112 11.4581 13.4581C11.1112 13.8051 10.6407 14 10.15 14H5.85C5.35935 14 4.88879 13.8051 4.54185 13.4581C4.19491 13.1112 4 12.6407 4 12.15V7.5C4 7.36739 4.05268 7.24021 4.14645 7.14645C4.24021 7.05268 4.36739 7 4.5 7H11.5C11.6326 7 11.7598 7.05268 11.8536 7.14645C11.9473 7.24021 12 7.36739 12 7.5V12.15Z" fill="#F2F2F2"/>
<path d="M8.5 10.3602V12.0002C8.5 12.1328 8.44732 12.26 8.35355 12.3537C8.25979 12.4475 8.13261 12.5002 8 12.5002C7.86739 12.5002 7.74022 12.4475 7.64645 12.3537C7.55268 12.26 7.5 12.1328 7.5 12.0002V10.3602C7.30936 10.2501 7.16036 10.0802 7.07612 9.87682C6.99188 9.67345 6.9771 9.44795 7.03407 9.23532C7.09105 9.02269 7.21659 8.8348 7.39124 8.70079C7.56588 8.56678 7.77987 8.49414 8 8.49414C8.22013 8.49414 8.43412 8.56678 8.60876 8.70079C8.78341 8.8348 8.90895 9.02269 8.96593 9.23532C9.0229 9.44795 9.00812 9.67345 8.92388 9.87682C8.83964 10.0802 8.69064 10.2501 8.5 10.3602Z" fill="#F2F2F2"/>
</svg>
