<svg width="24" height="24" viewBox="0 0 24 24" fill="none" xmlns="http://www.w3.org/2000/svg">
<path d="M5.788 2H2.09497C1.49119 2 1 2.4865 1 3.08456V6.74269C1 7.34075 1.49119 7.82729 2.09497 7.82729H5.788C6.39177 7.82729 6.88297 7.34075 6.88297 6.74269V3.08456C6.88297 2.4865 6.39177 2 5.788 2ZM5.80951 6.74273C5.80951 6.75328 5.79865 6.76404 5.788 6.76404H2.09497C2.08432 6.76404 2.07345 6.75328 2.07345 6.74273V3.08456C2.07345 3.07401 2.08432 3.06329 2.09497 3.06329H5.788C5.79865 3.06329 5.80951 3.07401 5.80951 3.08456V6.74273ZM8.53412 3.32686C8.53412 3.03321 8.77444 2.79521 9.07084 2.79521H21.4632C21.7596 2.79521 22 3.03321 22 3.32686C22 3.62046 21.7596 3.8585 21.4632 3.8585H9.07084C8.77444 3.8585 8.53412 3.62046 8.53412 3.32686ZM22 6.50043C22 6.79408 21.7597 7.03208 21.4633 7.03208H9.07084C8.77444 7.03208 8.53412 6.79408 8.53412 6.50043C8.53412 6.20683 8.77444 5.96879 9.07084 5.96879H21.4632C21.7597 5.96879 22 6.20683 22 6.50043ZM5.788 9.58633H2.09497C1.49119 9.58633 1 10.0728 1 10.6709V14.329C1 14.9271 1.49119 15.4136 2.09497 15.4136H5.788C6.39177 15.4136 6.88297 14.9271 6.88297 14.329V10.6709C6.88297 10.0729 6.39177 9.58633 5.788 9.58633ZM5.80951 14.3291C5.80951 14.3396 5.79865 14.3504 5.788 14.3504H2.09497C2.08432 14.3504 2.07345 14.3396 2.07345 14.3291V10.6709C2.07345 10.6604 2.08432 10.6497 2.09497 10.6497H5.788C5.79865 10.6497 5.80951 10.6604 5.80951 10.6709V14.3291ZM5.788 17.1727H2.09497C1.49119 17.1727 1 17.6592 1 18.2573V21.9154C1 22.5135 1.49119 23 2.09497 23H5.788C6.39177 23 6.88297 22.5135 6.88297 21.9154V18.2573C6.88297 17.6592 6.39177 17.1727 5.788 17.1727ZM5.80951 21.9154C5.80951 21.926 5.79865 21.9368 5.788 21.9368H2.09497C2.08432 21.9368 2.07345 21.926 2.07345 21.9154V18.2573C2.07345 18.2468 2.08432 18.236 2.09497 18.236H5.788C5.79865 18.236 5.80951 18.2468 5.80951 18.2573V21.9154ZM22 14.0868C22 14.3805 21.7597 14.6185 21.4633 14.6185H9.07084C8.77444 14.6185 8.53412 14.3805 8.53412 14.0868C8.53412 13.7932 8.77444 13.5552 9.07084 13.5552H21.4632C21.7597 13.5552 22 13.7932 22 14.0868ZM22 10.9133C22 11.2069 21.7597 11.4449 21.4633 11.4449H9.07084C8.77444 11.4449 8.53412 11.2069 8.53412 10.9133C8.53412 10.6196 8.77444 10.3816 9.07084 10.3816H21.4632C21.7597 10.3816 22 10.6196 22 10.9133ZM22 18.4996C22 18.7932 21.7597 19.0313 21.4633 19.0313H9.07084C8.77444 19.0313 8.53412 18.7932 8.53412 18.4996C8.53412 18.206 8.77444 17.968 9.07084 17.968H21.4632C21.7597 17.968 22 18.206 22 18.4996ZM22 21.6732C22 21.9668 21.7597 22.2048 21.4633 22.2048H9.07084C8.77444 22.2048 8.53412 21.9668 8.53412 21.6732C8.53412 21.3796 8.77444 21.1415 9.07084 21.1415H21.4632C21.7597 21.1415 22 21.3796 22 21.6732Z" fill="#F2F2F2"/>
</svg>
