<svg width="28" height="20" viewBox="0 0 28 20" fill="none" xmlns="http://www.w3.org/2000/svg">
<path d="M27.9944 10.8619C27.9609 10.0865 27.2022 9.46723 25.735 9.02092C24.5969 8.68061 23.152 8.4742 21.59 8.44072V2.48815C21.5844 2.38773 21.5565 2.29289 21.5063 2.2092C21.3501 1.53417 20.5969 0.987448 19.2636 0.585774C18.0084 0.206416 16.3682 0 14.6444 0C12.9261 0 11.3027 0.206416 10.0697 0.585774C9.05997 0.898187 7.84937 1.47838 7.84937 2.47699C7.84937 2.53835 7.85495 2.59972 7.86611 2.66109L7.92748 5.20502C4.30126 4.51325 0.803347 6.8954 0.117155 10.516C0.0390516 10.9289 0 11.3417 0 11.7601C0 15.4421 2.99582 18.4379 6.67782 18.4379C8.21199 18.4379 9.69596 17.9135 10.8842 16.9428C11.9275 17.1883 13.1548 17.3222 14.4547 17.3333C14.7392 18.8787 18.0865 19.5872 21.205 19.5872C22.9233 19.5872 24.5467 19.3752 25.7796 18.9902C26.7894 18.6778 28 18.0921 28 17.0934V10.9679C28 10.9344 28 10.8954 27.9944 10.8619ZM20.424 5.57322C20.424 5.64575 20.1562 6.03068 18.9456 6.39888C17.8131 6.73919 16.2455 6.94003 14.6499 6.94003C13.272 6.94003 11.9219 6.79498 10.8508 6.52162C10.834 6.51604 10.8229 6.51604 10.8061 6.51046C10.2762 6.09205 9.69038 5.75732 9.05997 5.52301L9.02092 3.94979C9.40586 4.14505 9.80753 4.30126 10.2259 4.41283C11.4365 4.7643 13.0042 4.95397 14.6499 4.95397C16.3682 4.95397 18.0139 4.74756 19.2692 4.3682C19.6876 4.24547 20.0948 4.08368 20.4798 3.88285V5.34449C20.4184 5.42259 20.424 5.49512 20.424 5.57322ZM10.4045 1.66248C11.5314 1.3166 13.0377 1.12134 14.6444 1.12134C16.2399 1.12134 17.8075 1.3166 18.94 1.66248C20.1506 2.03068 20.4184 2.41004 20.4184 2.48257C20.4184 2.56067 20.145 2.94561 18.9344 3.30823C17.802 3.64854 16.2399 3.84379 14.6444 3.84379C13.1046 3.84379 11.643 3.66527 10.5328 3.3417C9.33333 2.99582 8.99861 2.61646 8.97071 2.49372C8.97071 2.48257 8.96513 2.48257 8.96513 2.48257C8.97071 2.37657 9.22734 2.01953 10.4045 1.66248ZM10.4212 15.8773C8.15063 17.9414 4.6304 17.7796 2.56625 15.5091C0.502092 13.2385 0.663877 9.71827 2.93445 7.65412C3.95537 6.72246 5.29428 6.2092 6.67782 6.2092C7.2357 6.2092 7.78801 6.29289 8.32357 6.45467C10.2594 7.05718 11.7155 8.66388 12.1283 10.6444C12.2008 11.0126 12.2399 11.3919 12.2399 11.7657C12.2455 13.3333 11.5816 14.8229 10.4212 15.8773ZM11.8382 16C12.2901 15.4477 12.6527 14.8285 12.9093 14.1646C13.3835 14.2036 13.8745 14.2315 14.3877 14.2371V14.3375L14.4212 16.2287C13.5565 16.2176 12.6918 16.1395 11.8382 16ZM13.3278 11.1018C13.6513 11.1241 13.9916 11.1353 14.3375 11.1409L14.371 13.1158C13.9805 13.1102 13.5955 13.0934 13.2273 13.0656C13.311 12.636 13.3556 12.1953 13.3556 11.7601C13.3556 11.5425 13.3445 11.325 13.3278 11.1018ZM14.7001 10.0307C14.6834 10.0307 14.6611 10.0307 14.6444 10.0307C14.1088 10.0307 13.59 10.0084 13.1102 9.97489C12.8982 9.22734 12.5635 8.52441 12.1116 7.89958C12.9484 8.00558 13.7908 8.06137 14.6388 8.06137C16.3626 8.06137 18.0084 7.85495 19.2636 7.47559C19.682 7.35286 20.0837 7.19107 20.4686 6.99582V8.45746C18.0753 8.52441 15.6151 9.0265 14.7001 10.0307ZM15.4365 10.9177C15.4365 10.9121 15.4365 10.9066 15.4421 10.8954C15.4923 10.7448 15.8884 10.3766 17.0432 10.053C18.1255 9.74617 19.537 9.5788 21.0209 9.5788H21.1158C22.7113 9.5788 24.2734 9.7629 25.4114 10.1088C26.5997 10.4658 26.8787 10.834 26.8842 10.9177V10.9233C26.8787 11.007 26.5997 11.3919 25.3612 11.7601C24.2176 12.1004 22.7113 12.2845 21.1213 12.2845C19.5816 12.2845 18.1199 12.106 17.0098 11.788C15.8103 11.4421 15.4812 11.0572 15.4477 10.94C15.4365 10.9177 15.4365 10.9177 15.4365 10.9177ZM25.4561 17.9303C24.3291 18.2817 22.8173 18.477 21.2106 18.477C19.5983 18.477 18.0921 18.2873 16.9763 17.947C15.7992 17.5844 15.5537 17.2106 15.5537 17.1269C15.5537 17.1213 15.5537 17.1213 15.5537 17.1158L15.5258 15.4979C15.9721 15.7155 16.4351 15.8828 16.9149 16.0056C18.0865 16.3124 19.576 16.4854 21.1046 16.4854C22.8285 16.4854 24.463 16.2789 25.7127 15.8996C26.1199 15.7768 26.5105 15.6151 26.8842 15.4254V17.099H26.8898C26.8898 17.1771 26.6332 17.5621 25.4561 17.9303ZM26.8954 13.8243H26.8898C26.8898 13.8801 26.8563 13.947 26.8563 14.0084C26.8563 14.0865 26.5941 14.4658 25.3891 14.834C24.2455 15.1799 22.7225 15.3696 21.1102 15.3696C18.0195 15.3696 15.9386 14.6722 15.5035 14.1311L15.4979 13.6625L15.4756 12.3794C15.8661 12.5746 16.2734 12.7308 16.6918 12.848C17.9024 13.1994 19.47 13.3891 21.1158 13.3891C22.8117 13.3891 24.4296 13.1883 25.6736 12.8201C26.0976 12.7029 26.5049 12.5411 26.8954 12.3403V13.8243Z" fill="#F2F2F2"/>
</svg>
