<svg width="202" height="202" viewBox="0 0 202 202" fill="none" xmlns="http://www.w3.org/2000/svg">
<g clip-path="url(#clip0_2236_16851)">
<path d="M107.029 69.1533L114.541 71.3627C115.127 71.5239 115.732 71.6087 116.34 71.6152C117.86 71.6152 119.328 71.0671 120.476 70.0715C121.624 69.0759 122.374 67.6997 122.589 66.1954C122.804 64.6912 122.469 63.1599 121.646 61.8827C120.823 60.6055 119.566 59.6682 118.107 59.2427L110.469 57.0333C108.862 56.5604 107.133 56.7452 105.662 57.5473C104.191 58.3493 103.099 59.7028 102.626 61.31C102.153 62.9172 102.338 64.6465 103.14 66.1174C103.942 67.5883 105.296 68.6804 106.903 69.1533H107.029Z" fill="#FFC700"/>
<path d="M135.341 77.4541L142.852 79.6635C143.436 79.84 144.042 79.9251 144.652 79.916C146.171 79.916 147.64 79.3679 148.788 78.3723C149.935 77.3767 150.686 76.0004 150.901 74.4962C151.115 72.9919 150.781 71.4607 149.957 70.1835C149.134 68.9063 147.878 67.9689 146.419 67.5435L138.876 65.3341C138.08 65.0999 137.246 65.0248 136.421 65.1129C135.596 65.2011 134.797 65.4509 134.068 65.848C133.34 66.2452 132.697 66.7819 132.176 67.4275C131.655 68.0731 131.267 68.815 131.032 69.6108C130.798 70.4066 130.723 71.2408 130.811 72.0656C130.899 72.8905 131.149 73.6899 131.546 74.4182C131.943 75.1465 132.48 75.7895 133.126 76.3104C133.771 76.8313 134.513 77.2199 135.309 77.4541H135.341Z" fill="#FFC700"/>
<path d="M14.8343 77.3595C16.0865 78.4535 17.7198 79.0092 19.3793 78.906C19.9956 78.8676 20.6132 78.9518 21.1967 79.1536C21.7802 79.3554 22.3179 79.6709 22.7787 80.0818C23.2395 80.4927 23.6142 80.9909 23.8813 81.5475C24.1484 82.1042 24.3025 82.7082 24.3347 83.3248C24.3659 83.951 24.2732 84.5772 24.062 85.1676C23.8508 85.7579 23.5251 86.3008 23.1037 86.7651C22.2899 87.6629 21.157 88.2066 19.9475 88.2801C19.1154 88.3165 18.2988 88.5172 17.5447 88.8706C16.7906 89.224 16.1138 89.7231 15.5535 90.3392C14.9931 90.9553 14.5602 91.6762 14.2797 92.4604C13.9992 93.2445 13.8766 94.0765 13.919 94.9082L18.3062 182.589C18.5494 187.811 20.7925 192.74 24.5707 196.354C28.349 199.968 33.3727 201.989 38.6009 202H39.6109L106.902 198.591C109.727 198.447 112.492 197.716 115.019 196.445C117.546 195.173 119.78 193.389 121.579 191.205L125.492 192.342C127.345 192.902 129.27 193.189 131.205 193.194C135.601 193.181 139.874 191.749 143.389 189.11C146.905 186.471 149.473 182.766 150.711 178.549L175.456 94.4348C175.925 92.8276 175.736 91.1 174.931 89.632C174.126 88.1641 172.771 87.076 171.163 86.6073C169.97 86.2425 168.968 85.4209 168.377 84.3215C167.786 83.222 167.653 81.9336 168.007 80.7366C168.365 79.5452 169.18 78.5442 170.275 77.9526C171.369 77.3611 172.653 77.2272 173.846 77.5804C174.645 77.8191 175.482 77.8974 176.311 77.8108C177.14 77.7241 177.944 77.4742 178.675 77.0754C180.177 76.2836 181.31 74.9356 181.832 73.3195L190.069 45.2604C190.825 42.6989 191.068 40.0136 190.785 37.3581C190.502 34.7025 189.699 32.1288 188.421 29.7838C187.143 27.4389 185.415 25.3688 183.337 23.6918C181.259 22.0148 178.87 20.7639 176.308 20.0104L158.128 14.6448C157.322 14.3886 156.473 14.2969 155.631 14.3752C154.789 14.4534 153.971 14.7001 153.227 15.1005C152.482 15.5008 151.825 16.0468 151.295 16.7059C150.766 17.365 150.374 18.1238 150.143 18.9373C149.514 21.0791 148.061 22.884 146.103 23.9557C144.168 25.0008 141.899 25.239 139.79 24.6185C137.648 23.989 135.844 22.5353 134.773 20.5766C133.702 18.6179 133.452 16.3143 134.077 14.1713C134.313 13.3673 134.385 12.5244 134.291 11.692C134.198 10.8595 133.939 10.054 133.531 9.32255C133.122 8.59106 132.572 7.94816 131.913 7.43134C131.254 6.91452 130.498 6.5341 129.69 6.31227L111.51 0.915081C108.949 0.159676 106.264 -0.0835573 103.608 0.199283C100.952 0.482123 98.3787 1.28549 96.0337 2.56348C93.6888 3.84146 91.6187 5.56901 89.9417 7.6474C88.2647 9.72578 87.0138 12.1143 86.2603 14.6763L84.7769 19.7263L78.9062 20.0104C77.2357 20.1002 75.6691 20.8494 74.5506 22.0935C73.9881 22.71 73.5534 23.4319 73.2717 24.2174C72.99 25.003 72.8668 25.8366 72.9094 26.6701C72.9349 28.8509 72.1139 30.9567 70.619 32.5448C69.1241 34.1329 67.0717 35.0796 64.8933 35.1859C62.7149 35.2922 60.5802 34.5497 58.9378 33.1147C57.2954 31.6796 56.2734 29.6637 56.0865 27.4907C56.0461 26.6614 55.8425 25.8482 55.4873 25.0977C55.1321 24.3472 54.6324 23.6742 54.0167 23.1171C53.401 22.5601 52.6814 22.1299 51.8993 21.8514C51.1171 21.5728 50.2876 21.4513 49.4584 21.4938L30.5209 22.4723C25.142 22.75 20.0924 25.148 16.4779 29.1412C12.8633 33.1343 10.9785 38.3971 11.2362 43.777L12.625 73.0038C12.6855 73.8402 12.912 74.6561 13.2914 75.404C13.6707 76.1518 14.1952 76.8166 14.8343 77.3595ZM107.944 13.0351L121.011 16.8541C121.093 21.3344 122.603 25.6714 125.321 29.2343C128.038 32.7971 131.822 35.3999 136.121 36.6639C140.42 37.9279 145.01 37.7872 149.224 36.2622C153.437 34.7373 157.054 31.9077 159.548 28.1851L172.584 32.0041C174.536 32.5844 176.181 33.9114 177.16 35.697C177.65 36.5846 177.958 37.5609 178.066 38.5688C178.174 39.5767 178.081 40.5961 177.792 41.5676L171.006 64.7029C168.614 64.9001 166.291 65.5992 164.188 66.7545C162.188 67.8419 160.423 69.3133 158.993 71.0844C157.563 72.8555 156.497 74.8914 155.856 77.0754C155.215 79.2548 155.01 81.5392 155.254 83.7977C155.498 86.0562 156.185 88.2445 157.276 90.237C158.423 92.344 159.991 94.192 161.884 95.6657L138.622 174.888C138.043 176.826 136.727 178.46 134.957 179.44C133.187 180.419 131.104 180.666 129.154 180.127L64.5137 161.189C62.5812 160.604 60.9545 159.285 59.9813 157.516C59.0082 155.746 58.7658 153.666 59.3059 151.721L82.599 72.5304C84.9896 72.3071 87.3094 71.5983 89.4165 70.4473C91.9634 69.0591 94.1211 67.0538 95.6917 64.6152C97.2624 62.1766 98.1957 59.3828 98.4062 56.4898C98.6166 53.5968 98.0975 50.6973 96.8963 48.057C95.6951 45.4168 93.8504 43.1203 91.5312 41.3782L98.3487 18.2429C98.631 17.2673 99.1041 16.3574 99.7408 15.5661C100.378 14.7748 101.165 14.1179 102.058 13.6334C102.95 13.1489 103.93 12.8466 104.941 12.7438C105.951 12.6411 106.972 12.7401 107.944 13.0351ZM31.1837 35.1288L44.7556 34.4345C45.9833 37.6097 47.9529 40.4451 50.5 42.7038C54.2633 46.099 59.1251 48.0225 64.1926 48.1211C69.2602 48.2197 74.1931 46.4867 78.0856 43.2404C77.7769 44.7586 78.0373 46.3373 78.8172 47.6759C79.5971 49.0145 80.842 50.0196 82.315 50.4998C83.2108 50.7582 84.0097 51.2771 84.61 51.9905C85.2103 52.7039 85.585 53.5797 85.6865 54.5065C85.788 55.4334 85.6117 56.3695 85.1799 57.1959C84.7482 58.0223 84.0806 58.7018 83.2618 59.1479C82.1632 59.7528 80.8704 59.9002 79.6637 59.5582C78.0607 59.0882 76.3368 59.2728 74.8696 60.0714C73.4024 60.8701 72.3116 62.2178 71.8362 63.8191L47.0912 148.028C45.583 153.201 46.1839 158.761 48.7625 163.492C51.3411 168.223 55.6877 171.742 60.8525 173.278L104.156 185.903L38.9797 189.375C37.963 189.421 36.9471 189.266 35.9909 188.917C35.0346 188.569 34.1569 188.034 33.4085 187.345C32.6601 186.655 32.0558 185.824 31.6306 184.899C31.2054 183.974 30.9677 182.975 30.9312 181.958L26.7334 99.5163C28.9121 98.5194 30.8661 97.0914 32.4778 95.3185C34.4194 93.1955 35.8007 90.6216 36.4967 87.83C37.1927 85.0385 37.1813 82.1174 36.4636 79.3313C35.746 76.5453 34.3447 73.9822 32.3866 71.8743C30.4286 69.7664 27.9756 68.1803 25.25 67.2595L24.019 43.1457C23.9152 41.1316 24.6089 39.1577 25.9499 37.6513C27.2908 36.145 29.1712 35.2274 31.1837 35.0973V35.1288Z" fill="#FFC700"/>
<path d="M48.5426 88.3751H48.8582L56.812 87.9648C58.4862 87.8769 60.0568 87.1275 61.1785 85.8815C62.3002 84.6356 62.881 82.995 62.7931 81.3208C62.7052 79.6467 61.9558 78.076 60.7098 76.9543C59.4639 75.8326 57.8233 75.2519 56.1492 75.3398L48.227 75.7501C46.5528 75.7919 44.9638 76.4971 43.8096 77.7105C42.6554 78.924 42.0304 80.5462 42.0723 82.2204C42.1141 83.8946 42.8193 85.4835 44.0328 86.6378C45.2462 87.792 46.8684 88.4169 48.5426 88.3751Z" fill="#FFC700"/>
</g>
<defs>
<clipPath id="clip0_2236_16851">
<rect width="202" height="202" fill="white"/>
</clipPath>
</defs>
</svg>
