<svg width="48" height="48" viewBox="0 0 48 48" fill="none" xmlns="http://www.w3.org/2000/svg">
<rect width="48" height="48" rx="24" fill="#313131"/>
<path d="M32.2959 19.455L27.0459 14.205C26.9415 14.1004 26.8174 14.0174 26.6808 13.9608C26.5442 13.9042 26.3978 13.875 26.25 13.875H17.25C16.7527 13.875 16.2758 14.0725 15.9242 14.4242C15.5725 14.7758 15.375 15.2527 15.375 15.75V32.25C15.375 32.7473 15.5725 33.2242 15.9242 33.5758C16.2758 33.9275 16.7527 34.125 17.25 34.125H30.75C31.2473 34.125 31.7242 33.9275 32.0758 33.5758C32.4275 33.2242 32.625 32.7473 32.625 32.25V20.25C32.625 19.9519 32.5066 19.6659 32.2959 19.455ZM29.1562 19.5H27V17.3438L29.1562 19.5ZM17.625 31.875V16.125H24.75V20.625C24.75 20.9234 24.8685 21.2095 25.0795 21.4205C25.2905 21.6315 25.5766 21.75 25.875 21.75H30.375V31.875H17.625ZM27.0459 25.0791C27.2573 25.2904 27.376 25.5771 27.376 25.8759C27.376 26.1748 27.2573 26.4615 27.0459 26.6728C26.8346 26.8842 26.5479 27.0029 26.2491 27.0029C25.9502 27.0029 25.6635 26.8842 25.4522 26.6728L25.125 26.3438V29.25C25.125 29.5484 25.0065 29.8345 24.7955 30.0455C24.5845 30.2565 24.2984 30.375 24 30.375C23.7016 30.375 23.4155 30.2565 23.2045 30.0455C22.9935 29.8345 22.875 29.5484 22.875 29.25V26.3438L22.5459 26.6737C22.3346 26.8851 22.0479 27.0038 21.7491 27.0038C21.4502 27.0038 21.1635 26.8851 20.9522 26.6737C20.7408 26.4624 20.6221 26.1758 20.6221 25.8769C20.6221 25.578 20.7408 25.2913 20.9522 25.08L23.2022 22.83C23.3067 22.7251 23.4309 22.6419 23.5676 22.5851C23.7044 22.5283 23.851 22.4991 23.9991 22.4991C24.1471 22.4991 24.2937 22.5283 24.4305 22.5851C24.5672 22.6419 24.6914 22.7251 24.7959 22.83L27.0459 25.0791Z" fill="#6674FF"/>
</svg>
